<?xml version="1.0" standalone="no"?>
<!DOCTYPE svg PUBLIC "-//W3C//DTD SVG 20010904//EN"
 "http://www.w3.org/TR/2001/REC-SVG-20010904/DTD/svg10.dtd">
<svg version="1.0" xmlns="http://www.w3.org/2000/svg"
 width="1280.000000pt" height="640.000000pt" viewBox="0 0 1280.000000 640.000000"
 preserveAspectRatio="xMidYMid meet">
<g transform="translate(0.000000,640.000000) scale(0.100000,-0.100000)"
fill="#000000" stroke="none">
<path d="M325 3901 c-50 -14 -155 -103 -190 -160 l-35 -59 0 -274 c0 -180 4
-278 11 -285 10 -10 8 -134 -7 -318 -7 -98 5 -143 53 -196 58 -64 111 -85 238
-94 61 -4 2794 -9 6075 -11 5171 -2 5973 0 6025 12 81 20 157 72 192 131 l28
48 3 218 c4 214 3 219 -17 224 -19 5 -21 13 -21 84 0 60 5 88 20 116 17 33 20
57 20 183 0 80 -5 165 -11 190 -13 58 -53 110 -83 110 -13 0 -44 11 -67 25
-24 14 -70 30 -101 36 -32 6 -58 15 -58 19 0 8 -12046 9 -12075 1z"/>
</g>
</svg>
